<svg xmlns:svg="http://www.w3.org/2000/svg" xmlns="http://www.w3.org/2000/svg" id="logo" width="285" height="207" viewBox="0 0 285 207"><g id="g51" transform="matrix(0.76010133,0,0,0.76085837,0,0.01115732)"><title id="title9">Layer 1</title><path fill="#ecf0f1" id="svg_1" d="M176.16 43.94C158.66 43.59 142.27 35.66 127.03 27.06 106.84 15.67 85.95 2.07 61.8 2.77 50.58 3.09 39.18 7 31.22 14.88 22.42 23.61 18.59 36.43 18.56 48.82 18.48 77.72 36.21 102.63 39.1 131c2.52 24.65-7.54 49.38-2.1 73.84 8 36.16 41.59 55.93 75.61 63 28.13 5.86 66.15 8.8 88.14-13.43 11.16-11.28 20.08-28.66 36-28.82 12.46-.12 21.73 10.91 32.56 17.07 18.62 10.58 43.59 5.83 59.6-8.4 25.27-22.46 22.81-53.82 19.93-84.94A179.62 179.62.0 0 1 352 95.65C355.68 78.18 363.58 61.11 358.28 43.01 349.47 12.77 309-.52 280.69.0c-21.45.4-42.31 7.21-61 17.44-17.79 9.73-34.11 21.52-55.5 21" class="cls-1" /><path fill="#2e576d" id="svg_3" d="M48.970001 105.35h32.98v3.46h-32.98z" class="cls-3" /><circle fill="#2e576d" id="svg_4" r="7.1599998" cy="107.08" cx="42.540001" class="cls-3" /><path fill="#2e576d" id="svg_5" d="M12.69 122.41h67.459999v3.46H12.69z" class="cls-3" /><circle fill="#2e576d" id="svg_6" r="7.1599998" cy="124.14" cx="7.1599998" class="cls-3" /><path fill="#2e576d" id="svg_7" d="M26.139999 139.47h55.799999v3.46H26.139999z" class="cls-3" /><circle fill="#2e576d" id="svg_8" r="7.1599998" cy="141.2" cx="21.059999" class="cls-3" /><path fill="#2e576d" id="svg_9" d="M11.14 156.53h67.220001v3.46H11.14z" class="cls-3" /><circle fill="#2e576d" id="svg_10" r="7.1599998" cy="158.25999" cx="7.1599998" class="cls-3" /><path fill="#2e576d" id="svg_11" d="M293 105.35h32.98v3.46H293z" class="cls-3" /><circle fill="#2e576d" id="svg_12" r="7.1599998" cy="107.08" cx="332.39999" class="cls-3" /><path fill="#2e576d" id="svg_13" d="M294.79999 122.41h67.459999v3.46H294.79999z" class="cls-3" /><circle fill="#2e576d" id="svg_14" r="7.1599998" cy="124.14" cx="367.79001" class="cls-3" /><path fill="#2e576d" id="svg_15" d="M293 139.47h55.799999v3.46H293z" class="cls-3" /><circle fill="#2e576d" id="svg_16" r="7.1599998" cy="141.2" cx="353.89001" class="cls-3" /><path fill="#2e576d" id="svg_17" d="M296.59 156.53h67.220001v3.46H296.59z" class="cls-3" /><circle fill="#2e576d" id="svg_18" r="7.1599998" cy="158.25999" cx="367.79001" class="cls-3" /><circle fill="#2f6ea5" id="svg_19" r="115.5" cy="127.41" cx="190.69" class="cls-4" /><circle opacity="0" fill="#4f84a6" id="svg_22" r="95.5" cy="127.41" cx="190.69" class="cls-6" /><path opacity="0" fill="#2e576d" id="svg_25" d="m1e2 111.65a93.65 93.65.0 0 1 91.3-77.49c3.86.0 3.87-6 0-6-47.64.43-88.78 34.88-97.09 81.89-.67 3.78 5.11 5.4 5.79 1.6z" class="cls-3" /><path opacity="0" fill="#2e576d" id="svg_26" d="m98.78 126.66q0-2.46.12-4.92a3 3 0 0 0-3-3 3.07 3.07.0 0 0-3 3q-.12 2.46-.12 4.92a3 3 0 0 0 6 0z" class="cls-3" /><path fill="#2e576d" id="svg_27" d="m280 200.31c-31.4 37.71-83.73 52.25-129.88 35C109.48 220.13 80 181.73 76 138.55a116.44 116.44.0 0 1 24.57-83c2.37-3-1.85-7.27-4.24-4.24C64.21 91.9 60.57 149.6 88.91 193.23a121.25 121.25.0 0 0 195.35 11.3c2.45-2.95-1.77-7.21-4.24-4.24z" class="cls-3" /><path fill="#2e576d" id="svg_28" d="m291.54 183.25q-2.33 4.16-5 8.14c-2.14 3.23 3.05 6.24 5.18 3q2.63-4 5-8.14c1.89-3.37-3.29-6.4-5.18-3z" class="cls-3" /><path fill="#2e576d" id="svg_29" d="m135.53 26.19c32.66-17.57 72.65-18.74 106-2.26a115.27 115.27.0 0 1 60.94 131.71c-.92 3.75 4.87 5.35 5.79 1.6 8.78-35.94 1.2-74.3-21.42-103.69A121.28 121.28.0 0 0 132.5 21c-3.4 1.83-.38 7 3 5.18z" class="cls-3" /><path opacity="0" fill="#fff" id="svg_30" d="M219.09 47.67A53.74 53.74.0 0 1 238.64 58c1.48 1.22 3.61-.89 2.12-2.12a57.5 57.5.0 0 0-20.87-11.13 1.5 1.5.0 0 0-.8 2.89z" class="cls-8" /><circle fill="#2e576d" id="svg_31" r="4.5" cy="35.389999" cx="86.669998" class="cls-3" /><path fill="#2e576d" id="svg_32" d="m302.67 56.89a5.5 5.5.0 1 1 5.5-5.5 5.51 5.51.0 0 1-5.5 5.5zm0-9a3.5 3.5.0 1 0 3.5 3.5 3.5 3.5.0 0 0-3.5-3.5z" class="cls-3" /><path fill="#2e576d" id="svg_33" d="m57.67 201.89a5.5 5.5.0 1 1 5.5-5.5 5.51 5.51.0 0 1-5.5 5.5zm0-9a3.5 3.5.0 1 0 3.5 3.5 3.5 3.5.0 0 0-3.5-3.5z" class="cls-3" /><circle fill="#2e576d" id="svg_34" r="4.5" cy="205.39" cx="306.67001" class="cls-3" /><path fill="#2e576d" id="svg_35" d="m56.67 66.89v8a1.5 1.5.0 0 0 3 0v-8a1.5 1.5.0 0 0-3 0z" class="cls-3" /><path fill="#2e576d" id="svg_36" d="m62.17 69.39h-8a1.5 1.5.0 0 0 0 3h8a1.5 1.5.0 0 0 0-3z" class="cls-3" /><path fill="#2e576d" id="svg_37" d="m291.67 217.89v8a1.5 1.5.0 0 0 3 0v-8a1.5 1.5.0 0 0-3 0z" class="cls-3" /><path fill="#2e576d" id="svg_38" d="m297.17 220.39h-8a1.5 1.5.0 0 0 0 3h8a1.5 1.5.0 0 0 0-3z" class="cls-3" /><path fill="#fff" id="svg_39" d="M184.52 117.62 155.32 130.41 184.52 147.52z" class="cls-9" /><path fill="#fff" id="svg_40" d="M184.52 80.46 156.26 127.94 184.52 115.57z" class="cls-9" /><path fill="#fff" id="svg_41" d="M186.41 115.57 215.06 128.12 186.41 80.45z" class="cls-9" /><path fill="#fff" id="svg_42" d="M186.41 147.52 215.63 130.42 186.41 117.62z" class="cls-9" /><path fill="#fff" id="svg_43" d="M184.52 153.53 155.52 136.55l29 41.03z" class="cls-9" /><path fill="#fff" id="svg_44" d="M215.41 136.55 186.41 153.53V177.58z" class="cls-9" /><path opacity="0" fill="#2e576d" id="svg_45" d="m135.65 200.51a94.88 94.88.0 0 1-30.11-35c-1.75-3.45-6.92-.41-5.18 3a101.05 101.05.0 0 0 32.26 37.13c3.16 2.23 6.16-3 3-5.18z" class="cls-3" /></g></svg>